<svg xmlns="http://www.w3.org/2000/svg" xml:space="preserve" id="Layer_1" x="0" y="0" style="enable-background:new 0 0 217.22 83.37" version="1.1" viewBox="0 0 217.22 83.37"><style>.st0{fill:none;stroke:#4A4E69;stroke-width:2;stroke-miterlimit:10}</style><path d="M98.69 76.49c-.41.93-.96 1.74-1.63 2.43-.67.69-1.41 1.27-2.2 1.74-.79.47-1.61.82-2.46 1.06-.85.24-1.65.36-2.41.36h-6.63l35.33-75.52c.79-1.73 1.95-3.04 3.47-3.94 1.52-.9 3.19-1.35 5.02-1.35h6.53L98.69 76.49zM96.86 38.67c-.87 2.56-1.99 4.99-3.35 7.28a42.163 42.163 0 0 1-4.66 6.39 40.754 40.754 0 0 1-5.74 5.33 39.828 39.828 0 0 1-6.54 4.05 35.195 35.195 0 0 1-7.11 2.58c-2.45.6-4.92.9-7.39.9H45.15l21.83-47.03h16.91c3.08 0 5.67.52 7.78 1.57 2.11 1.04 3.71 2.48 4.81 4.31 1.1 1.83 1.68 3.99 1.76 6.49.07 2.49-.39 5.2-1.38 8.13zm-12.31.36c.55-1.63.87-3.1.95-4.43.08-1.33-.1-2.46-.52-3.39-.42-.93-1.09-1.65-1.99-2.17-.91-.51-2.05-.77-3.44-.77h-5.38l-12.11 26.2h5.38c1.83 0 3.6-.36 5.31-1.08 1.71-.72 3.3-1.75 4.78-3.09 1.48-1.33 2.82-2.95 4.01-4.86 1.19-1.89 2.2-4.03 3.01-6.41zM159.66 18.12c-.6 0-1.26.09-1.97.26s-1.41.62-2.11 1.36c0 0-20.31 21.38-20.91 22.09.19-1.42.34-22.28.34-22.28.02-.41-.03-.72-.14-.94-.12-.22-.29-.37-.52-.47-.23-.1-.52-.15-.87-.15-.17 0-1.19.18-1.38.18l-7.31 15.69-.59 24.11c-.02.71.21 1.25.69 1.61.48.37 1.13.55 1.95.55h1.42c.82 0 1.64-.18 2.45-.53.82-.36 1.57-.9 2.27-1.63l20.57-22.56c-.45.75-.87 1.48-1.26 2.18-.4.7-.73 1.34-1.01 1.92l-12 25.84 10.38-.18 22.93-47.03-12.93-.02zM215.43 45.22l-57.61 19.1 7.79-10.4c.89-1.04 1.26-1.6 1.81-2.15.8-.8 2.02-1.4 2.95-1.85l21.66-7.14c.83-.25 4.65-1.54 4.65-1.54s-2.35-1.23-2.77-1.48L180.31 33c-1.32-.74-1.97-1.75-1.97-3.03 0-.26.02-.45.05-.58l1.35-10.34 36.41 20.35-.72 5.82zM1.79 38.15l57.61-19.1-7.79 10.4c-.89 1.04-1.26 1.6-1.81 2.15-.8.8-2.02 1.4-2.95 1.85l-21.66 7.14c-.83.25-4.65 1.54-4.65 1.54s2.35 1.23 2.77 1.48l13.59 6.77c1.32.74 1.97 1.75 1.97 3.03 0 .26-.02.45-.05.58l-1.35 10.34-36.4-20.36.72-5.82z" class="st0"/></svg>